<svg width="177" height="41" viewBox="0 0 177 41" fill="none" xmlns="http://www.w3.org/2000/svg">
<path d="M123.488 16.9292L122.734 19.0612C120.879 18.4546 119.501 18.1512 118.6 18.1512C117.491 18.1512 116.936 18.5672 116.936 19.3992C116.936 19.5379 116.953 19.6679 116.988 19.7892C117.023 19.8932 117.092 19.9886 117.196 20.0752C117.3 20.1619 117.395 20.2399 117.482 20.3092C117.586 20.3612 117.742 20.4306 117.95 20.5172C118.158 20.5866 118.323 20.6472 118.444 20.6992C118.583 20.7339 118.799 20.7946 119.094 20.8812C119.389 20.9679 119.623 21.0372 119.796 21.0892C121.321 21.5572 122.37 22.0426 122.942 22.5452C123.514 23.0479 123.8 23.8712 123.8 25.0152C123.8 26.1766 123.384 27.0866 122.552 27.7452C121.737 28.4039 120.593 28.7332 119.12 28.7332C117.196 28.7332 115.376 28.1699 113.66 27.0432L114.648 25.0152C116.208 25.9339 117.699 26.3932 119.12 26.3932C120.351 26.3932 120.966 25.9859 120.966 25.1712C120.966 24.9979 120.949 24.8419 120.914 24.7032C120.879 24.5646 120.81 24.4432 120.706 24.3392C120.602 24.2352 120.498 24.1486 120.394 24.0792C120.307 24.0099 120.151 23.9319 119.926 23.8452C119.701 23.7586 119.51 23.6979 119.354 23.6632C119.215 23.6112 118.964 23.5332 118.6 23.4292C118.253 23.3252 117.976 23.2386 117.768 23.1692C116.503 22.7706 115.584 22.3112 115.012 21.7912C114.457 21.2712 114.18 20.5519 114.18 19.6332C114.18 18.4372 114.553 17.5099 115.298 16.8512C116.061 16.1926 117.144 15.8632 118.548 15.8632C120.004 15.8632 121.651 16.2186 123.488 16.9292Z" fill="#0063E3"/>
<path d="M131.764 15.9152C133.688 15.8979 135.213 16.4786 136.34 17.6572C137.484 18.8186 138.056 20.3959 138.056 22.3892C138.056 24.3306 137.484 25.8732 136.34 27.0172C135.213 28.1612 133.688 28.7332 131.764 28.7332C129.84 28.7332 128.314 28.1612 127.188 27.0172C126.061 25.8732 125.498 24.3306 125.498 22.3892C125.498 20.3959 126.061 18.8186 127.188 17.6572C128.332 16.4786 129.857 15.8979 131.764 15.9152ZM129.268 25.2752C129.874 25.9512 130.706 26.2892 131.764 26.2892C132.821 26.2892 133.653 25.9512 134.26 25.2752C134.866 24.5819 135.17 23.6199 135.17 22.3892C135.17 21.1066 134.866 20.1099 134.26 19.3992C133.653 18.6886 132.821 18.3332 131.764 18.3332C130.724 18.3332 129.9 18.6886 129.294 19.3992C128.687 20.1099 128.384 21.1066 128.384 22.3892C128.384 23.6199 128.678 24.5819 129.268 25.2752Z" fill="#0063E3"/>
<path d="M150.037 25.0932L150.999 26.9132C150.132 27.5892 149.291 28.0659 148.477 28.3432C147.679 28.6032 146.717 28.7332 145.591 28.7332C143.875 28.7332 142.479 28.1612 141.405 27.0172C140.33 25.8732 139.793 24.3306 139.793 22.3892C139.793 20.3959 140.347 18.8186 141.457 17.6572C142.566 16.4786 144.031 15.8892 145.851 15.8892C147.567 15.8892 149.135 16.3139 150.557 17.1632L149.621 19.0872C148.494 18.5672 147.307 18.3072 146.059 18.3072C145.036 18.3072 144.213 18.6799 143.589 19.4252C142.982 20.1532 142.679 21.1412 142.679 22.3892C142.679 23.5852 142.973 24.5386 143.563 25.2492C144.169 25.9426 144.984 26.2892 146.007 26.2892C147.411 26.2892 148.754 25.8906 150.037 25.0932Z" fill="#0063E3"/>
<path d="M153.374 13.7052C153.045 13.4279 152.88 13.0379 152.88 12.5352C152.88 12.0326 153.045 11.6426 153.374 11.3652C153.704 11.0879 154.111 10.9492 154.596 10.9492C155.082 10.9492 155.489 11.0879 155.818 11.3652C156.148 11.6426 156.312 12.0326 156.312 12.5352C156.312 13.0379 156.148 13.4279 155.818 13.7052C155.489 13.9652 155.082 14.0952 154.596 14.0952C154.111 14.0952 153.704 13.9652 153.374 13.7052ZM156.078 28.4992H153.14V16.1492H156.078V28.4992Z" fill="#0063E3"/>
<path d="M167.81 28.4992V26.9652C167.134 27.5892 166.519 28.0399 165.964 28.3172C165.41 28.5946 164.664 28.7332 163.728 28.7332C162.272 28.7332 161.059 28.1959 160.088 27.1212C159.118 26.0466 158.632 24.4259 158.632 22.2592C158.632 18.0299 160.236 15.9152 163.442 15.9152C165.02 15.9152 166.476 16.4526 167.81 17.5272V16.1492H170.748V28.4992H167.81ZM167.81 24.4692V20.2312C166.736 19.0006 165.609 18.3852 164.43 18.3852C162.506 18.3852 161.544 19.6766 161.544 22.2592C161.544 23.6286 161.83 24.6426 162.402 25.3012C162.974 25.9599 163.711 26.2892 164.612 26.2892C165.306 26.2892 165.869 26.1592 166.302 25.8992C166.736 25.6219 167.238 25.1452 167.81 24.4692Z" fill="#0063E3"/>
<path d="M176.972 28.4992H174.034V11.5992H176.972V28.4992Z" fill="#0063E3"/>
<path d="M64.5284 28.4992H61.3304L56.2344 16.1232H59.1984L62.2924 23.5332C62.431 23.8626 62.639 24.5039 62.9164 25.4572C63.3324 24.2266 63.549 23.5852 63.5664 23.5332L66.7644 16.1232H69.7284L64.5284 28.4992Z" fill="white"/>
<path d="M71.7696 13.7052C71.4402 13.4279 71.2756 13.0379 71.2756 12.5352C71.2756 12.0326 71.4402 11.6426 71.7696 11.3652C72.0989 11.0879 72.5062 10.9492 72.9916 10.9492C73.4769 10.9492 73.8842 11.0879 74.2136 11.3652C74.5429 11.6426 74.7076 12.0326 74.7076 12.5352C74.7076 13.0379 74.5429 13.4279 74.2136 13.7052C73.8842 13.9652 73.4769 14.0952 72.9916 14.0952C72.5062 14.0952 72.0989 13.9652 71.7696 13.7052ZM74.4736 28.4992H71.5356V16.1492H74.4736V28.4992Z" fill="white"/>
<path d="M87.034 16.9292L86.28 19.0612C84.4254 18.4546 83.0473 18.1512 82.146 18.1512C81.0367 18.1512 80.482 18.5672 80.482 19.3992C80.482 19.5379 80.4994 19.6679 80.534 19.7892C80.5687 19.8932 80.638 19.9886 80.742 20.0752C80.846 20.1619 80.9414 20.2399 81.028 20.3092C81.132 20.3612 81.288 20.4306 81.496 20.5172C81.704 20.5866 81.8687 20.6472 81.99 20.6992C82.1287 20.7339 82.3454 20.7946 82.64 20.8812C82.9347 20.9679 83.1687 21.0372 83.342 21.0892C84.8674 21.5572 85.916 22.0426 86.488 22.5452C87.06 23.0479 87.346 23.8712 87.346 25.0152C87.346 26.1766 86.93 27.0866 86.098 27.7452C85.2833 28.4039 84.1394 28.7332 82.666 28.7332C80.742 28.7332 78.922 28.1699 77.206 27.0432L78.194 25.0152C79.754 25.9339 81.2447 26.3932 82.666 26.3932C83.8967 26.3932 84.512 25.9859 84.512 25.1712C84.512 24.9979 84.4947 24.8419 84.46 24.7032C84.4254 24.5646 84.356 24.4432 84.252 24.3392C84.148 24.2352 84.044 24.1486 83.94 24.0792C83.8534 24.0099 83.6974 23.9319 83.472 23.8452C83.2467 23.7586 83.056 23.6979 82.9 23.6632C82.7614 23.6112 82.51 23.5332 82.146 23.4292C81.7994 23.3252 81.522 23.2386 81.314 23.1692C80.0487 22.7706 79.13 22.3112 78.558 21.7912C78.0034 21.2712 77.726 20.5519 77.726 19.6332C77.726 18.4372 78.0987 17.5099 78.844 16.8512C79.6067 16.1926 80.69 15.8632 82.094 15.8632C83.55 15.8632 85.1967 16.2186 87.034 16.9292Z" fill="white"/>
<path d="M97.083 25.9772L97.395 27.9532C96.3377 28.4039 95.2977 28.6292 94.275 28.6292C92.9057 28.6292 91.9177 28.2912 91.311 27.6152C90.7217 26.9392 90.427 25.8386 90.427 24.3132V18.5932H88.607V16.1232H90.427V13.1592H93.391V16.1232H96.823V18.5932H93.391V24.1832C93.391 24.9112 93.5297 25.4139 93.807 25.6912C94.1017 25.9512 94.6043 26.0812 95.315 26.0812C95.939 26.0812 96.5283 26.0466 97.083 25.9772Z" fill="white"/>
<path d="M107.964 28.4992V26.9652C107.288 27.5892 106.673 28.0399 106.118 28.3172C105.564 28.5946 104.818 28.7332 103.882 28.7332C102.426 28.7332 101.213 28.1959 100.242 27.1212C99.2718 26.0466 98.7864 24.4259 98.7864 22.2592C98.7864 18.0299 100.39 15.9152 103.596 15.9152C105.174 15.9152 106.63 16.4526 107.964 17.5272V16.1492H110.902V28.4992H107.964ZM107.964 24.4692V20.2312C106.89 19.0006 105.763 18.3852 104.584 18.3852C102.66 18.3852 101.698 19.6766 101.698 22.2592C101.698 23.6286 101.984 24.6426 102.556 25.3012C103.128 25.9599 103.865 26.2892 104.766 26.2892C105.46 26.2892 106.023 26.1592 106.456 25.8992C106.89 25.6219 107.392 25.1452 107.964 24.4692Z" fill="white"/>
<path d="M38.9684 26.8575C39.6375 24.8602 40 22.7225 40 20.5C40 9.4543 31.0457 0.5 20 0.5C9.32666 0.5 0.606073 8.8608 0.0302734 19.3904C0.384604 19.0246 0.735247 18.648 1.08062 18.2604C3.08349 16.0127 4.65899 14.4054 5.94899 13.3267C7.23273 12.2532 8.27032 11.6711 9.19667 11.532C10.1523 11.3886 10.9322 11.7234 11.6669 12.3308C12.3471 12.8932 13.0207 13.7167 13.7895 14.6565L13.9207 14.817C15.5815 16.8454 17.8013 19.4984 21.7493 21.8365C22.6696 22.3815 23.685 22.91 24.8103 23.4096C25.7339 22.9767 26.4607 22.5209 27.0532 22.0771C27.7311 21.5692 28.2408 21.0716 28.6763 20.6265C28.7458 20.5555 28.8141 20.485 28.8815 20.4156L28.8823 20.4147C29.228 20.0581 29.5487 19.7273 29.8754 19.4807C30.2822 19.1736 30.7236 18.9752 31.2855 18.9756C31.8316 18.976 32.4564 19.1646 33.2366 19.5516C35.7327 20.7894 37.9492 22.2441 39.7613 23.5961C39.5872 24.7167 39.3205 25.8066 38.9684 26.8575Z" fill="#0063E3"/>
<path fill-rule="evenodd" clip-rule="evenodd" d="M20.2585 40.4984C20.1725 40.4995 20.0863 40.5 20 40.5L20.2585 40.4984ZM20.2585 40.4984C20.2337 40.4987 20.2089 40.4989 20.1841 40.4992C20.1229 40.4997 20.0614 40.5 20 40.5" fill="#0063E3"/>
<path d="M19.8154 40.4992C19.8767 40.4997 19.9381 40.5 19.9995 40.5C20.061 40.5 20.1223 40.4997 20.1836 40.4992H19.8154Z" fill="#EAF3FF"/>
<path d="M38.9679 26.8575C39.32 25.8065 39.5872 24.7167 39.7613 23.5961C37.9492 22.2441 35.7327 20.7894 33.2366 19.5516C32.4564 19.1646 31.8316 18.976 31.2854 18.9756C30.7236 18.9752 30.2822 19.1736 29.8754 19.4807C29.5487 19.7273 29.2281 20.0581 28.8824 20.4146L28.8815 20.4156C28.8141 20.485 28.7458 20.5555 28.6763 20.6265C28.2408 21.0716 27.7311 21.5692 27.0532 22.0771C26.4607 22.5209 25.7338 22.9768 24.81 23.4097C28.3138 24.9653 32.8833 26.2401 38.9679 26.8575Z" fill="#EAF3FF"/>
<path d="M19.8159 40.4992C8.85498 40.4003 0 31.4843 0 20.5C0 20.1277 0.0101749 19.7577 0.0302618 19.3904C0.384592 19.0246 0.735235 18.648 1.08061 18.2604C3.08348 16.0127 4.65898 14.4054 5.94897 13.3267C7.23272 12.2532 8.2703 11.6711 9.19666 11.532C10.1523 11.3886 10.9322 11.7234 11.6669 12.3308C12.3471 12.8932 13.0207 13.7167 13.7895 14.6565L13.9207 14.817C15.5814 16.8454 17.8013 19.4984 21.7493 21.8365C25.5351 24.0785 30.9294 26.0418 38.9684 26.8575C36.3305 34.7313 28.9273 40.4203 20.1841 40.4992H19.8159Z" fill="#A6C7F5"/>
</svg>
